<?xml version="1.0" standalone="no"?>
<!DOCTYPE svg PUBLIC "-//W3C//DTD SVG 20010904//EN"
 "http://www.w3.org/TR/2001/REC-SVG-20010904/DTD/svg10.dtd">
<svg version="1.0" xmlns="http://www.w3.org/2000/svg"
 width="1024.000000pt" height="1024.000000pt" viewBox="0 0 1024.000000 1024.000000"
 preserveAspectRatio="xMidYMid meet">

<g transform="translate(0.000000,1024.000000) scale(0.100000,-0.100000)"
fill="#000000" stroke="none">
<path d="M6972 8593 c-23 -3 -36 -12 -44 -28 -10 -22 -5 -30 51 -90 109 -117
139 -209 103 -321 -19 -62 -79 -164 -96 -164 -5 0 -75 27 -155 61 -430 179
-906 302 -1311 339 -148 13 -498 13 -631 0 -575 -57 -1100 -253 -1615 -602
-118 -80 -143 -102 -236 -211 -203 -238 -314 -398 -409 -592 -206 -420 -213
-818 -23 -1197 26 -51 65 -120 87 -153 62 -94 188 -245 202 -245 19 0 82 -180
133 -381 l19 -76 -33 -54 c-51 -84 -91 -218 -104 -344 -6 -60 -14 -135 -19
-165 -9 -59 -1 -157 18 -230 19 -72 61 -177 80 -202 12 -15 20 -50 25 -101 29
-328 208 -571 540 -732 160 -77 258 -108 503 -160 120 -25 229 -48 243 -51 20
-5 11 -10 -50 -28 -154 -46 -283 -114 -406 -216 -85 -70 -171 -171 -200 -235
-31 -65 -32 -149 -4 -207 11 -23 20 -43 20 -44 0 -1 -24 -7 -52 -13 -79 -17
-152 -54 -201 -104 -39 -38 -46 -52 -56 -109 -6 -35 -11 -86 -11 -111 l0 -46
-140 -123 c-77 -68 -140 -125 -140 -129 0 -3 17 -15 38 -26 l37 -21 119 104
120 105 19 -31 c22 -34 60 -48 82 -30 22 18 19 45 -10 88 -30 45 -40 103 -30
177 12 99 84 153 233 173 72 10 74 10 118 -19 60 -41 232 -121 329 -153 79
-26 81 -28 132 -99 29 -40 55 -80 58 -89 4 -9 -24 -152 -61 -317 -37 -166 -65
-303 -63 -306 3 -2 23 -8 46 -13 l42 -10 20 92 c52 230 69 300 70 286 1 -8 -6
-97 -15 -198 -9 -101 -14 -185 -11 -188 3 -3 23 -8 45 -11 l40 -5 6 53 c3 30
13 135 21 234 9 99 20 204 25 233 11 62 13 58 -77 195 -142 216 -359 457 -412
457 -30 0 -51 -16 -51 -39 0 -9 30 -46 67 -84 l68 -68 -55 21 c-89 35 -176 88
-237 144 -53 49 -56 55 -61 107 -6 72 16 116 104 209 161 171 362 271 629 315
131 22 205 18 411 -21 16 -3 25 -17 35 -51 15 -54 16 -210 1 -225 -6 -6 -27 2
-58 22 -80 51 -163 72 -306 77 -143 6 -178 -4 -178 -52 0 -36 27 -45 142 -45
220 0 371 -73 389 -187 13 -80 34 -141 56 -165 32 -34 46 -102 39 -183 -11
-118 -33 -217 -61 -280 -67 -147 -93 -285 -76 -395 13 -82 30 -114 62 -118 42
-5 54 20 41 79 -27 115 -8 242 55 380 36 80 37 81 216 232 99 84 203 169 231
191 28 21 156 129 284 240 206 178 241 205 310 233 161 67 353 93 519 69 57
-8 62 -7 73 13 31 60 -16 83 -181 89 -141 5 -228 -8 -381 -58 -99 -32 -101
-30 -74 48 20 57 52 100 131 183 l68 70 116 -16 c422 -58 749 -208 903 -413
43 -57 45 -64 38 -99 -11 -49 -70 -104 -135 -128 -111 -41 -115 -43 -115 -68
0 -13 9 -32 19 -41 18 -17 23 -17 73 -2 29 8 75 26 101 39 l48 25 13 -27 c29
-54 48 -144 44 -197 -3 -30 -7 -56 -9 -58 -2 -3 -31 2 -64 10 -91 21 -366 62
-495 73 -180 16 -570 23 -734 14 -127 -8 -150 -12 -162 -28 -7 -10 -11 -28 -8
-39 3 -15 -16 -48 -71 -120 -175 -230 -297 -484 -335 -702 -14 -80 -9 -119 19
-133 10 -6 65 -13 123 -17 100 -6 106 -6 127 15 13 13 20 29 17 36 -8 21 40
187 90 315 54 137 139 301 237 462 l72 118 200 0 c248 0 270 -5 181 -36 -133
-46 -225 -103 -323 -199 -94 -92 -111 -123 -81 -153 25 -25 54 -12 106 48 95
107 225 182 407 235 102 29 251 55 328 57 61 1 278 -37 321 -57 17 -7 56 -21
86 -30 78 -25 110 -42 152 -83 l37 -35 35 27 36 27 -22 30 c-25 34 -114 93
-164 109 -31 10 -32 13 -23 43 24 85 4 218 -48 321 -24 47 -24 51 -10 81 9 18
19 53 22 79 6 41 4 52 -20 89 -85 128 -211 236 -373 320 -160 82 -302 129
-511 166 l-94 17 74 43 c176 104 375 259 517 404 l74 74 76 -24 c92 -30 234
-41 310 -24 92 19 162 59 237 135 82 83 125 153 172 278 l34 91 -21 105 c-27
136 -68 233 -131 311 l-50 62 75 102 c229 315 389 662 457 997 21 102 24 141
24 355 -1 223 -2 249 -28 368 -98 458 -351 898 -761 1324 l-89 93 59 0 c115 0
236 -47 348 -134 84 -65 116 -59 116 19 0 110 -57 240 -141 320 -65 62 -135
98 -237 122 l-68 16 24 81 c59 202 13 342 -134 407 -69 31 -206 45 -312 32z
m199 -97 c26 -3 63 -13 83 -23 l36 -17 0 -79 c0 -151 -84 -339 -183 -409 l-32
-23 23 32 c12 17 37 62 55 100 28 61 32 78 32 158 0 82 -3 97 -32 155 -18 36
-44 77 -58 92 l-25 28 27 -5 c16 -2 49 -6 74 -9z m-3476 -565 c-6 -4 -62 -46
-125 -91 -146 -106 -268 -205 -348 -283 -64 -62 -188 -236 -256 -359 l-37 -67
24 -33 c65 -88 60 -225 -13 -353 -60 -105 -192 -228 -260 -241 -21 -5 -32 -14
-36 -30 -3 -13 -4 -126 -2 -251 l4 -228 41 -110 c22 -60 44 -119 48 -130 19
-52 -40 51 -76 133 -61 140 -90 264 -96 417 -9 214 33 398 142 624 99 204 196
346 399 584 94 110 112 125 256 222 165 109 374 233 335 196z m3939 -703 c118
-158 186 -269 271 -443 134 -274 192 -499 202 -776 12 -337 -54 -621 -223
-959 -116 -231 -308 -516 -339 -504 -8 4 -15 8 -15 9 0 2 27 44 61 93 88 132
145 287 255 702 44 166 47 183 51 340 8 271 -25 667 -78 925 -39 190 -138 462
-230 632 -28 51 -48 93 -45 93 3 0 44 -51 90 -112z m-4525 -818 c25 -120 112
-359 184 -505 44 -90 129 -199 236 -304 101 -99 99 -105 -15 -40 -128 74 -241
191 -318 330 -74 135 -126 358 -126 535 1 80 2 87 14 64 8 -14 19 -50 25 -80z
m2138 -117 c8 -21 28 -56 43 -78 15 -22 42 -69 59 -104 40 -78 164 -282 205
-336 104 -137 222 -241 381 -335 60 -36 65 -41 35 -35 -78 16 -278 77 -326
100 -130 63 -282 333 -384 680 -44 151 -42 145 -34 145 3 0 12 -17 21 -37z
m-1408 -591 c179 -173 254 -214 546 -298 79 -23 54 -28 -116 -22 -131 4 -140
6 -205 38 -96 47 -235 188 -342 347 -45 67 -85 130 -88 140 -3 10 25 -16 62
-57 37 -41 102 -108 143 -148z m-624 -6 c101 -117 217 -206 346 -265 l57 -26
-138 0 c-125 0 -141 -2 -167 -21 -32 -24 -40 -60 -20 -88 19 -25 77 -34 292
-42 176 -6 181 -6 208 15 17 14 27 32 27 48 0 21 3 24 23 19 12 -3 41 -9 64
-12 35 -6 43 -3 54 14 13 20 14 20 48 2 93 -47 125 -50 497 -50 357 0 579 10
757 35 94 13 100 12 118 -6 10 -10 28 -19 38 -19 11 0 46 -7 79 -15 40 -10
116 -16 228 -18 162 -2 170 -1 201 21 l32 22 108 -19 c145 -26 380 -45 474
-38 l76 6 62 -103 c34 -56 76 -138 93 -182 28 -73 30 -85 25 -164 -4 -47 -11
-100 -18 -117 -13 -38 -6 -51 46 -93 l40 -32 -260 7 c-143 3 -263 9 -266 13
-3 4 -12 36 -19 71 -16 78 -80 204 -140 275 -138 163 -327 250 -540 250 -128
-1 -204 -19 -325 -78 -144 -71 -277 -207 -339 -349 -20 -43 -32 -57 -57 -66
-18 -6 -47 -22 -65 -36 l-33 -25 -48 22 c-40 19 -65 22 -153 22 -73 0 -118 -6
-149 -17 -38 -15 -46 -15 -70 -2 -14 8 -38 19 -53 24 -20 8 -28 19 -33 50 -9
56 -81 191 -135 255 -94 110 -214 187 -357 228 -98 28 -256 30 -353 5 -91 -24
-235 -97 -298 -152 -35 -31 -53 -42 -56 -33 -3 7 -14 47 -26 89 -11 42 -32
109 -45 150 -14 40 -25 76 -25 79 0 4 20 4 45 -1 50 -9 92 2 102 27 3 9 -10
64 -30 122 -38 115 -63 283 -51 348 l7 36 30 -56 c17 -32 58 -90 92 -130z
m505 -556 c207 -33 368 -145 459 -320 127 -244 80 -531 -119 -730 -189 -189
-471 -242 -704 -132 -73 35 -177 112 -211 156 l-25 32 27 105 c25 97 27 118
27 309 0 145 -5 226 -16 278 l-15 72 68 65 c112 105 236 155 429 173 8 1 44
-3 80 -8z m2000 -50 c207 -33 368 -145 459 -320 127 -244 80 -531 -119 -730
-193 -193 -478 -243 -715 -125 -101 50 -177 115 -234 200 -63 94 -88 163 -103
279 -10 80 -9 106 5 177 38 196 173 374 347 457 85 41 157 59 280 70 8 1 44
-3 80 -8z m-2636 -366 c6 -51 6 -51 -34 -78 -22 -14 -40 -24 -40 -21 0 22 54
164 60 158 4 -4 10 -31 14 -59z m1671 -166 c28 -13 73 -47 102 -76 44 -43 53
-58 58 -99 30 -215 134 -386 307 -504 74 -50 133 -76 233 -100 163 -39 318
-19 485 63 90 44 116 63 185 133 44 45 95 107 114 138 48 82 92 216 98 305 l6
75 150 -7 c83 -3 184 -6 226 -6 l76 0 48 -66 c40 -55 51 -65 74 -62 51 6 54
42 8 103 -14 20 -14 21 43 14 31 -3 65 -9 74 -13 9 -4 56 2 105 15 61 16 118
23 188 23 89 1 106 -2 160 -27 129 -60 197 -166 240 -373 l15 -75 -30 -76
c-102 -254 -246 -364 -459 -350 -134 8 -208 36 -272 102 -54 54 -84 66 -107
43 -19 -19 -14 -42 20 -89 l31 -43 -105 -101 c-374 -359 -816 -571 -1300 -624
-166 -19 -495 -14 -668 9 -305 41 -902 160 -1060 212 -360 118 -589 317 -668
583 -26 86 -44 335 -25 335 5 0 20 -12 34 -26 13 -14 50 -44 81 -65 152 -104
347 -141 536 -104 92 19 237 86 309 144 120 95 214 242 253 397 13 49 27 82
38 88 9 5 38 31 64 57 59 60 116 80 213 75 48 -2 86 -11 120 -28z m165 10 c0
-16 -3 -19 -11 -11 -6 6 -8 16 -5 22 11 17 16 13 16 -11z m-560 8 c0 -3 -4 -8
-10 -11 -5 -3 -10 -1 -10 4 0 6 5 11 10 11 6 0 10 -2 10 -4z m-1273 -108 c-6
-105 -25 -204 -37 -191 -15 15 -40 116 -40 158 0 33 7 50 36 83 19 23 38 42
41 42 3 0 3 -42 0 -92z m-68 -353 l0 -20 -9 20 c-5 11 -9 27 -9 35 -1 13 0 13
9 0 5 -8 9 -24 9 -35z m2947 -1258 c-47 -62 -79 -146 -84 -224 l-5 -72 -206
-178 c-113 -98 -258 -218 -321 -267 -63 -49 -155 -123 -204 -164 -55 -47 -86
-68 -82 -55 11 34 9 186 -3 231 -7 24 -28 75 -48 114 -43 87 -52 157 -29 244
17 66 21 196 7 255 l-8 36 241 0 c176 -1 273 4 361 16 125 19 355 70 383 87
25 14 25 13 -2 -23z m12 -899 c-161 -249 -296 -546 -358 -785 l-11 -43 -51 0
-51 0 7 46 c9 71 70 241 122 345 58 117 134 234 233 361 58 74 82 98 100 98
22 0 22 -1 9 -22z"/>
<path d="M3612 4580 c-70 -13 -92 -26 -92 -54 0 -43 18 -48 138 -35 84 9 130
9 202 0 89 -11 94 -11 114 9 25 24 15 47 -28 68 -34 17 -261 25 -334 12z"/>
<path d="M5365 4586 c-97 -16 -125 -29 -125 -60 0 -43 22 -50 108 -35 95 17
274 17 324 0 48 -16 78 -2 78 38 0 22 -7 31 -27 40 -80 32 -217 38 -358 17z"/>
<path d="M6747 4403 c-24 -24 34 -151 79 -172 23 -10 64 9 64 31 0 7 -18 42
-40 80 -35 58 -45 68 -69 68 -15 0 -31 -3 -34 -7z"/>
<path d="M7295 4346 c-50 -24 -96 -67 -149 -139 -31 -42 -31 -59 0 -139 25
-64 13 -95 -50 -129 -57 -31 -71 -51 -56 -78 17 -32 45 -34 99 -6 73 36 111
92 111 161 0 30 -7 72 -16 94 -16 40 -16 40 16 80 87 109 164 115 260 19 50
-50 84 -61 108 -37 22 22 12 49 -38 99 -58 58 -138 99 -195 99 -22 0 -62 -11
-90 -24z"/>
<path d="M6730 4215 c-12 -14 -12 -23 1 -57 17 -49 41 -68 66 -52 32 20 36 38
17 79 -21 45 -60 59 -84 30z"/>
<path d="M4216 3604 c-32 -32 -19 -58 77 -150 346 -335 671 -380 942 -132 94
86 187 203 183 230 -6 41 -30 44 -125 15 -141 -43 -227 -57 -393 -64 -197 -7
-323 11 -507 73 -148 49 -155 50 -177 28z m944 -173 c0 -16 -25 -29 -105 -57
-73 -25 -93 -28 -225 -28 -132 -1 -149 1 -192 22 -48 24 -75 48 -65 58 3 3 37
1 76 -5 126 -20 344 -12 504 18 4 0 7 -3 7 -8z"/>
<path d="M6611 1552 c-16 -13 -26 -50 -49 -174 -16 -87 -25 -158 -21 -158 4 0
27 8 51 19 l44 19 24 130 c12 72 20 137 17 145 -11 29 -43 38 -66 19z"/>
<path d="M3817 1492 c-9 -10 -17 -25 -17 -34 0 -12 -37 -109 -86 -224 -3 -7
14 -18 40 -27 l46 -16 19 45 c59 134 85 215 75 242 -12 34 -52 41 -77 14z"/>
</g>
</svg>
